<mxfile host="app.diagrams.net" modified="2023-10-29T00:17:25.558Z" agent="Mozilla/5.0 (X11; Linux x86_64) AppleWebKit/537.36 (KHTML, like Gecko) Chrome/118.0.0.0 Safari/537.36" etag="1OgVcV0sR0cDBCzrBBBA" version="22.0.8" type="device">
  <diagram id="yS-anFGd7w5dJ1plhpKt" name="Page-1">
    <mxGraphModel dx="1433" dy="785" grid="1" gridSize="10" guides="1" tooltips="1" connect="1" arrows="1" fold="1" page="1" pageScale="1" pageWidth="827" pageHeight="1169" math="0" shadow="0">
      <root>
        <mxCell id="0" />
        <mxCell id="1" parent="0" />
        <UserObject label="" plantUmlData="{&quot;data&quot;:&quot;@startuml RideSharingPlatformClassDiagram\n!theme mono\n\n!define PRIMARY_KEY &lt;&lt;PK&gt;&gt;\n!define CLASS class\n!define FIELD field\n\nCLASS User {\n  + userId: int PRIMARY_KEY\n  + username: string\n  + email: string\n  + password: string\n}\n\nCLASS Profile {\n  + profileId: int PRIMARY_KEY\n  + user: User\n  + phone: string\n}\n\nCLASS Driver {\n  + driverId: int PRIMARY_KEY\n  + name: string\n  + phone: string\n  + nid: string\n  + license: string\n}\n\nCLASS VehicleType {\n  + typeId: int PRIMARY_KEY\n  + name: string\n}\n\nCLASS Vehicle {\n  + vehicleId: int PRIMARY_KEY\n  + driver: Driver\n  + type: VehicleType\n  + brand: string\n  + model: string\n  + seats: int\n  + registration: string\n}\n\nCLASS Trip {\n  + tripId: int PRIMARY_KEY\n  + user: User\n  + driver: Driver\n  + vehicle: Vehicle\n  + startDate: date\n  + startTime: time\n  + distance: float\n  + duration: string\n  + status: string\n}\n\nCLASS Review {\n  + reviewId: int PRIMARY_KEY\n  + trip: Trip\n  + comment: string\n  + rating: int\n}\n\nUser -- Profile\nUser -- Trip\nDriver -- Trip\nDriver -- Vehicle\nVehicleType -- Vehicle\nUser -- Review\nTrip -- Review\n\n@enduml\n&quot;,&quot;format&quot;:&quot;svg&quot;}" id="oL1iNiM3iqKo0f4nsd2M-1">
          <mxCell style="shape=image;noLabel=1;verticalAlign=top;aspect=fixed;imageAspect=0;image=data:image/svg+xml,PD94bWwgdmVyc2lvbj0iMS4wIiBlbmNvZGluZz0idXMtYXNjaWkiIHN0YW5kYWxvbmU9Im5vIj8+PHN2ZyB4bWxucz0iaHR0cDovL3d3dy53My5vcmcvMjAwMC9zdmciIHhtbG5zOnhsaW5rPSJodHRwOi8vd3d3LnczLm9yZy8xOTk5L3hsaW5rIiBjb250ZW50U3R5bGVUeXBlPSJ0ZXh0L2NzcyIgaGVpZ2h0PSI1MzRweCIgcHJlc2VydmVBc3BlY3RSYXRpbz0ibm9uZSIgc3R5bGU9IndpZHRoOjY0M3B4O2hlaWdodDo1MzRweDtiYWNrZ3JvdW5kOiNGRkZGRkY7IiB2ZXJzaW9uPSIxLjEiIHZpZXdCb3g9IjAgMCA2NDMgNTM0IiB3aWR0aD0iNjQzcHgiIHpvb21BbmRQYW49Im1hZ25pZnkiPjxkZWZzLz48Zz48IS0tY2xhc3MgVXNlci0tPjxnIGlkPSJlbGVtX1VzZXIiPjxyZWN0IGNvZGVMaW5lPSI3IiBmaWxsPSIjRkZGRkZGIiBoZWlnaHQ9IjEwMS45Mzc1IiBpZD0iVXNlciIgcng9IjIuNSIgcnk9IjIuNSIgc3R5bGU9InN0cm9rZTojMDAwMDAwO3N0cm9rZS13aWR0aDoxLjA7IiB3aWR0aD0iMTM3IiB4PSIxNDEuNSIgeT0iMTkuNSIvPjxlbGxpcHNlIGN4PSIxOTIuNSIgY3k9IjMyLjUiIGZpbGw9IiNGRkZGRkYiIHJ4PSI4IiByeT0iOCIgc3R5bGU9InN0cm9rZTojMDAwMDAwO3N0cm9rZS13aWR0aDoxLjA7Ii8+PHBhdGggZD0iTTE5MC43NSwzNC43MTg4IEwxOTAuNzUsMzUuNzUgTDE5My42NTYzLDM1Ljc1IEwxOTMuNjU2MywzNC43MTg4IEwxOTAuNzUsMzQuNzE4OCBaIE0xOTEuMTU2MywzNS4xMjUgUTE5MS4xNTYzLDM1LjEyNSAxOTEuMTU2MywyOS43MTg4IEwxOTAuMTI1LDI5LjcxODggUTE5MC4xMjUsMjkuNzE4OCAxOTAuMTI1LDM1LjEyNSBMMTkxLjE1NjMsMzUuMTI1IFogTTE5My4yNSwzNS4xMjUgTDE5NC4yODEzLDM1LjEyNSBRMTk0LjI4MTMsMzUuMTI1IDE5NC4yODEzLDMzLjQ2ODggTDE5My4yNSwzMy40Njg4IFExOTMuMjUsMzMuNDY4OCAxOTMuMjUsMzUuMTI1IFogTTE5My4yNSwyOS43MTg4IFExOTMuMjUsMjkuNzE4OCAxOTMuMjUsMzEuMzc1IEwxOTQuMjgxMywzMS4zNzUgUTE5NC4yODEzLDMxLjM3NSAxOTQuMjgxMywyOS43MTg4IEwxOTMuMjUsMjkuNzE4OCBaIE0xOTAuNzUsMzAuMTI1IEwxOTMuNjU2MywzMC4xMjUgTDE5My42NTYzLDI5LjA5MzggTDE5MC43NSwyOS4wOTM4IEwxOTAuNzUsMzAuMTI1IFogIiBmaWxsPSIjMDAwMDAwIi8+PHRleHQgZmlsbD0iIzAwMDAwMCIgZm9udC1mYW1pbHk9IkhhY2siIGZvbnQtc2l6ZT0iMTQiIGxlbmd0aEFkanVzdD0ic3BhY2luZyIgdGV4dExlbmd0aD0iMjgiIHg9IjIwOC41IiB5PSIzOC4yNDIyIj5Vc2VyPC90ZXh0PjxsaW5lIHN0eWxlPSJzdHJva2U6IzAwMDAwMDtzdHJva2Utd2lkdGg6MS4wOyIgeDE9IjE0Mi41IiB4Mj0iMjc3LjUiIHkxPSI0NS41IiB5Mj0iNDUuNSIvPjxlbGxpcHNlIGN4PSIxNTIuNSIgY3k9IjU4LjQ5MjIiIGZpbGw9Im5vbmUiIHJ4PSIzIiByeT0iMyIgc3R5bGU9InN0cm9rZTojMDAwMDAwO3N0cm9rZS13aWR0aDoxLjA7Ii8+PHRleHQgZmlsbD0iIzAwMDAwMCIgZm9udC1mYW1pbHk9IkhhY2siIGZvbnQtc2l6ZT0iMTQiIGxlbmd0aEFkanVzdD0ic3BhY2luZyIgdGV4dExlbmd0aD0iMTE0IiB4PSIxNTguNSIgeT0iNjIuNzM0NCI+dXNlcklkOiBpbnQgJiMxNzE7UEsmIzE4Nzs8L3RleHQ+PGVsbGlwc2UgY3g9IjE1Mi41IiBjeT0iNzMuNDc2NiIgZmlsbD0ibm9uZSIgcng9IjMiIHJ5PSIzIiBzdHlsZT0ic3Ryb2tlOiMwMDAwMDA7c3Ryb2tlLXdpZHRoOjEuMDsiLz48dGV4dCBmaWxsPSIjMDAwMDAwIiBmb250LWZhbWlseT0iSGFjayIgZm9udC1zaXplPSIxNCIgbGVuZ3RoQWRqdXN0PSJzcGFjaW5nIiB0ZXh0TGVuZ3RoPSIxMTMiIHg9IjE1OC41IiB5PSI3Ny43MTg4Ij51c2VybmFtZTogc3RyaW5nPC90ZXh0PjxlbGxpcHNlIGN4PSIxNTIuNSIgY3k9Ijg4LjQ2MDkiIGZpbGw9Im5vbmUiIHJ4PSIzIiByeT0iMyIgc3R5bGU9InN0cm9rZTojMDAwMDAwO3N0cm9rZS13aWR0aDoxLjA7Ii8+PHRleHQgZmlsbD0iIzAwMDAwMCIgZm9udC1mYW1pbHk9IkhhY2siIGZvbnQtc2l6ZT0iMTQiIGxlbmd0aEFkanVzdD0ic3BhY2luZyIgdGV4dExlbmd0aD0iOTIiIHg9IjE1OC41IiB5PSI5Mi43MDMxIj5lbWFpbDogc3RyaW5nPC90ZXh0PjxlbGxpcHNlIGN4PSIxNTIuNSIgY3k9IjEwMy40NDUzIiBmaWxsPSJub25lIiByeD0iMyIgcnk9IjMiIHN0eWxlPSJzdHJva2U6IzAwMDAwMDtzdHJva2Utd2lkdGg6MS4wOyIvPjx0ZXh0IGZpbGw9IiMwMDAwMDAiIGZvbnQtZmFtaWx5PSJIYWNrIiBmb250LXNpemU9IjE0IiBsZW5ndGhBZGp1c3Q9InNwYWNpbmciIHRleHRMZW5ndGg9IjExMyIgeD0iMTU4LjUiIHk9IjEwNy42ODc1Ij5wYXNzd29yZDogc3RyaW5nPC90ZXh0PjxsaW5lIHN0eWxlPSJzdHJva2U6IzAwMDAwMDtzdHJva2Utd2lkdGg6MS4wOyIgeDE9IjE0Mi41IiB4Mj0iMjc3LjUiIHkxPSIxMTMuNDM3NSIgeTI9IjExMy40Mzc1Ii8+PC9nPjwhLS1jbGFzcyBQcm9maWxlLS0+PGcgaWQ9ImVsZW1fUHJvZmlsZSI+PHJlY3QgY29kZUxpbmU9IjE0IiBmaWxsPSIjRkZGRkZGIiBoZWlnaHQ9Ijg2Ljk1MzEiIGlkPSJQcm9maWxlIiByeD0iMi41IiByeT0iMi41IiBzdHlsZT0ic3Ryb2tlOiMwMDAwMDA7c3Ryb2tlLXdpZHRoOjEuMDsiIHdpZHRoPSIxNTgiIHg9IjEyIiB5PSIyMzQiLz48ZWxsaXBzZSBjeD0iNjMiIGN5PSIyNDciIGZpbGw9IiNGRkZGRkYiIHJ4PSI4IiByeT0iOCIgc3R5bGU9InN0cm9rZTojMDAwMDAwO3N0cm9rZS13aWR0aDoxLjA7Ii8+PHBhdGggZD0iTTYxLjI1LDI0OS4yMTg4IEw2MS4yNSwyNTAuMjUgTDY0LjE1NjMsMjUwLjI1IEw2NC4xNTYzLDI0OS4yMTg4IEw2MS4yNSwyNDkuMjE4OCBaIE02MS42NTYzLDI0OS42MjUgUTYxLjY1NjMsMjQ5LjYyNSA2MS42NTYzLDI0NC4yMTg4IEw2MC42MjUsMjQ0LjIxODggUTYwLjYyNSwyNDQuMjE4OCA2MC42MjUsMjQ5LjYyNSBMNjEuNjU2MywyNDkuNjI1IFogTTYzLjc1LDI0OS42MjUgTDY0Ljc4MTMsMjQ5LjYyNSBRNjQuNzgxMywyNDkuNjI1IDY0Ljc4MTMsMjQ3Ljk2ODggTDYzLjc1LDI0Ny45Njg4IFE2My43NSwyNDcuOTY4OCA2My43NSwyNDkuNjI1IFogTTYzLjc1LDI0NC4yMTg4IFE2My43NSwyNDQuMjE4OCA2My43NSwyNDUuODc1IEw2NC43ODEzLDI0NS44NzUgUTY0Ljc4MTMsMjQ1Ljg3NSA2NC43ODEzLDI0NC4yMTg4IEw2My43NSwyNDQuMjE4OCBaIE02MS4yNSwyNDQuNjI1IEw2NC4xNTYzLDI0NC42MjUgTDY0LjE1NjMsMjQzLjU5MzggTDYxLjI1LDI0My41OTM4IEw2MS4yNSwyNDQuNjI1IFogIiBmaWxsPSIjMDAwMDAwIi8+PHRleHQgZmlsbD0iIzAwMDAwMCIgZm9udC1mYW1pbHk9IkhhY2siIGZvbnQtc2l6ZT0iMTQiIGxlbmd0aEFkanVzdD0ic3BhY2luZyIgdGV4dExlbmd0aD0iNDkiIHg9Ijc5IiB5PSIyNTIuNzQyMiI+UHJvZmlsZTwvdGV4dD48bGluZSBzdHlsZT0ic3Ryb2tlOiMwMDAwMDA7c3Ryb2tlLXdpZHRoOjEuMDsiIHgxPSIxMyIgeDI9IjE2OSIgeTE9IjI2MCIgeTI9IjI2MCIvPjxlbGxpcHNlIGN4PSIyMyIgY3k9IjI3Mi45OTIyIiBmaWxsPSJub25lIiByeD0iMyIgcnk9IjMiIHN0eWxlPSJzdHJva2U6IzAwMDAwMDtzdHJva2Utd2lkdGg6MS4wOyIvPjx0ZXh0IGZpbGw9IiMwMDAwMDAiIGZvbnQtZmFtaWx5PSJIYWNrIiBmb250LXNpemU9IjE0IiBsZW5ndGhBZGp1c3Q9InNwYWNpbmciIHRleHRMZW5ndGg9IjEzNSIgeD0iMjkiIHk9IjI3Ny4yMzQ0Ij5wcm9maWxlSWQ6IGludCAmIzE3MTtQSyYjMTg3OzwvdGV4dD48ZWxsaXBzZSBjeD0iMjMiIGN5PSIyODcuOTc2NiIgZmlsbD0ibm9uZSIgcng9IjMiIHJ5PSIzIiBzdHlsZT0ic3Ryb2tlOiMwMDAwMDA7c3Ryb2tlLXdpZHRoOjEuMDsiLz48dGV4dCBmaWxsPSIjMDAwMDAwIiBmb250LWZhbWlseT0iSGFjayIgZm9udC1zaXplPSIxNCIgbGVuZ3RoQWRqdXN0PSJzcGFjaW5nIiB0ZXh0TGVuZ3RoPSI3MCIgeD0iMjkiIHk9IjI5Mi4yMTg4Ij51c2VyOiBVc2VyPC90ZXh0PjxlbGxpcHNlIGN4PSIyMyIgY3k9IjMwMi45NjA5IiBmaWxsPSJub25lIiByeD0iMyIgcnk9IjMiIHN0eWxlPSJzdHJva2U6IzAwMDAwMDtzdHJva2Utd2lkdGg6MS4wOyIvPjx0ZXh0IGZpbGw9IiMwMDAwMDAiIGZvbnQtZmFtaWx5PSJIYWNrIiBmb250LXNpemU9IjE0IiBsZW5ndGhBZGp1c3Q9InNwYWNpbmciIHRleHRMZW5ndGg9IjkxIiB4PSIyOSIgeT0iMzA3LjIwMzEiPnBob25lOiBzdHJpbmc8L3RleHQ+PGxpbmUgc3R5bGU9InN0cm9rZTojMDAwMDAwO3N0cm9rZS13aWR0aDoxLjA7IiB4MT0iMTMiIHgyPSIxNjkiIHkxPSIzMTIuOTUzMSIgeTI9IjMxMi45NTMxIi8+PC9nPjwhLS1jbGFzcyBEcml2ZXItLT48ZyBpZD0iZWxlbV9Ecml2ZXIiPjxyZWN0IGNvZGVMaW5lPSIyMCIgZmlsbD0iI0ZGRkZGRiIgaGVpZ2h0PSIxMTYuOTIxOSIgaWQ9IkRyaXZlciIgcng9IjIuNSIgcnk9IjIuNSIgc3R5bGU9InN0cm9rZTojMDAwMDAwO3N0cm9rZS13aWR0aDoxLjA7IiB3aWR0aD0iMTUxIiB4PSIzMTMuNSIgeT0iMTIiLz48ZWxsaXBzZSBjeD0iMzY0LjUiIGN5PSIyNSIgZmlsbD0iI0ZGRkZGRiIgcng9IjgiIHJ5PSI4IiBzdHlsZT0ic3Ryb2tlOiMwMDAwMDA7c3Ryb2tlLXdpZHRoOjEuMDsiLz48cGF0aCBkPSJNMzYyLjc1LDI3LjIxODggTDM2Mi43NSwyOC4yNSBMMzY1LjY1NjMsMjguMjUgTDM2NS42NTYzLDI3LjIxODggTDM2Mi43NSwyNy4yMTg4IFogTTM2My4xNTYzLDI3LjYyNSBRMzYzLjE1NjMsMjcuNjI1IDM2My4xNTYzLDIyLjIxODggTDM2Mi4xMjUsMjIuMjE4OCBRMzYyLjEyNSwyMi4yMTg4IDM2Mi4xMjUsMjcuNjI1IEwzNjMuMTU2MywyNy42MjUgWiBNMzY1LjI1LDI3LjYyNSBMMzY2LjI4MTMsMjcuNjI1IFEzNjYuMjgxMywyNy42MjUgMzY2LjI4MTMsMjUuOTY4OCBMMzY1LjI1LDI1Ljk2ODggUTM2NS4yNSwyNS45Njg4IDM2NS4yNSwyNy42MjUgWiBNMzY1LjI1LDIyLjIxODggUTM2NS4yNSwyMi4yMTg4IDM2NS4yNSwyMy44NzUgTDM2Ni4yODEzLDIzLjg3NSBRMzY2LjI4MTMsMjMuODc1IDM2Ni4yODEzLDIyLjIxODggTDM2NS4yNSwyMi4yMTg4IFogTTM2Mi43NSwyMi42MjUgTDM2NS42NTYzLDIyLjYyNSBMMzY1LjY1NjMsMjEuNTkzOCBMMzYyLjc1LDIxLjU5MzggTDM2Mi43NSwyMi42MjUgWiAiIGZpbGw9IiMwMDAwMDAiLz48dGV4dCBmaWxsPSIjMDAwMDAwIiBmb250LWZhbWlseT0iSGFjayIgZm9udC1zaXplPSIxNCIgbGVuZ3RoQWRqdXN0PSJzcGFjaW5nIiB0ZXh0TGVuZ3RoPSI0MiIgeD0iMzgwLjUiIHk9IjMwLjc0MjIiPkRyaXZlcjwvdGV4dD48bGluZSBzdHlsZT0ic3Ryb2tlOiMwMDAwMDA7c3Ryb2tlLXdpZHRoOjEuMDsiIHgxPSIzMTQuNSIgeDI9IjQ2My41IiB5MT0iMzgiIHkyPSIzOCIvPjxlbGxpcHNlIGN4PSIzMjQuNSIgY3k9IjUwLjk5MjIiIGZpbGw9Im5vbmUiIHJ4PSIzIiByeT0iMyIgc3R5bGU9InN0cm9rZTojMDAwMDAwO3N0cm9rZS13aWR0aDoxLjA7Ii8+PHRleHQgZmlsbD0iIzAwMDAwMCIgZm9udC1mYW1pbHk9IkhhY2siIGZvbnQtc2l6ZT0iMTQiIGxlbmd0aEFkanVzdD0ic3BhY2luZyIgdGV4dExlbmd0aD0iMTI4IiB4PSIzMzAuNSIgeT0iNTUuMjM0NCI+ZHJpdmVySWQ6IGludCAmIzE3MTtQSyYjMTg3OzwvdGV4dD48ZWxsaXBzZSBjeD0iMzI0LjUiIGN5PSI2NS45NzY2IiBmaWxsPSJub25lIiByeD0iMyIgcnk9IjMiIHN0eWxlPSJzdHJva2U6IzAwMDAwMDtzdHJva2Utd2lkdGg6MS4wOyIvPjx0ZXh0IGZpbGw9IiMwMDAwMDAiIGZvbnQtZmFtaWx5PSJIYWNrIiBmb250LXNpemU9IjE0IiBsZW5ndGhBZGp1c3Q9InNwYWNpbmciIHRleHRMZW5ndGg9Ijg1IiB4PSIzMzAuNSIgeT0iNzAuMjE4OCI+bmFtZTogc3RyaW5nPC90ZXh0PjxlbGxpcHNlIGN4PSIzMjQuNSIgY3k9IjgwLjk2MDkiIGZpbGw9Im5vbmUiIHJ4PSIzIiByeT0iMyIgc3R5bGU9InN0cm9rZTojMDAwMDAwO3N0cm9rZS13aWR0aDoxLjA7Ii8+PHRleHQgZmlsbD0iIzAwMDAwMCIgZm9udC1mYW1pbHk9IkhhY2siIGZvbnQtc2l6ZT0iMTQiIGxlbmd0aEFkanVzdD0ic3BhY2luZyIgdGV4dExlbmd0aD0iOTEiIHg9IjMzMC41IiB5PSI4NS4yMDMxIj5waG9uZTogc3RyaW5nPC90ZXh0PjxlbGxpcHNlIGN4PSIzMjQuNSIgY3k9Ijk1Ljk0NTMiIGZpbGw9Im5vbmUiIHJ4PSIzIiByeT0iMyIgc3R5bGU9InN0cm9rZTojMDAwMDAwO3N0cm9rZS13aWR0aDoxLjA7Ii8+PHRleHQgZmlsbD0iIzAwMDAwMCIgZm9udC1mYW1pbHk9IkhhY2siIGZvbnQtc2l6ZT0iMTQiIGxlbmd0aEFkanVzdD0ic3BhY2luZyIgdGV4dExlbmd0aD0iNzciIHg9IjMzMC41IiB5PSIxMDAuMTg3NSI+bmlkOiBzdHJpbmc8L3RleHQ+PGVsbGlwc2UgY3g9IjMyNC41IiBjeT0iMTEwLjkyOTciIGZpbGw9Im5vbmUiIHJ4PSIzIiByeT0iMyIgc3R5bGU9InN0cm9rZTojMDAwMDAwO3N0cm9rZS13aWR0aDoxLjA7Ii8+PHRleHQgZmlsbD0iIzAwMDAwMCIgZm9udC1mYW1pbHk9IkhhY2siIGZvbnQtc2l6ZT0iMTQiIGxlbmd0aEFkanVzdD0ic3BhY2luZyIgdGV4dExlbmd0aD0iMTA1IiB4PSIzMzAuNSIgeT0iMTE1LjE3MTkiPmxpY2Vuc2U6IHN0cmluZzwvdGV4dD48bGluZSBzdHlsZT0ic3Ryb2tlOiMwMDAwMDA7c3Ryb2tlLXdpZHRoOjEuMDsiIHgxPSIzMTQuNSIgeDI9IjQ2My41IiB5MT0iMTIwLjkyMTkiIHkyPSIxMjAuOTIxOSIvPjwvZz48IS0tY2xhc3MgVmVoaWNsZVR5cGUtLT48ZyBpZD0iZWxlbV9WZWhpY2xlVHlwZSI+PHJlY3QgY29kZUxpbmU9IjI4IiBmaWxsPSIjRkZGRkZGIiBoZWlnaHQ9IjcxLjk2ODgiIGlkPSJWZWhpY2xlVHlwZSIgcng9IjIuNSIgcnk9IjIuNSIgc3R5bGU9InN0cm9rZTojMDAwMDAwO3N0cm9rZS13aWR0aDoxLjA7IiB3aWR0aD0iMTM3IiB4PSI0OTkuNSIgeT0iMzQuNSIvPjxlbGxpcHNlIGN4PSI1MjYuOCIgY3k9IjQ3LjUiIGZpbGw9IiNGRkZGRkYiIHJ4PSI4IiByeT0iOCIgc3R5bGU9InN0cm9rZTojMDAwMDAwO3N0cm9rZS13aWR0aDoxLjA7Ii8+PHBhdGggZD0iTTUyNS4wNSw0OS43MTg4IEw1MjUuMDUsNTAuNzUgTDUyNy45NTYzLDUwLjc1IEw1MjcuOTU2Myw0OS43MTg4IEw1MjUuMDUsNDkuNzE4OCBaIE01MjUuNDU2Myw1MC4xMjUgUTUyNS40NTYzLDUwLjEyNSA1MjUuNDU2Myw0NC43MTg4IEw1MjQuNDI1LDQ0LjcxODggUTUyNC40MjUsNDQuNzE4OCA1MjQuNDI1LDUwLjEyNSBMNTI1LjQ1NjMsNTAuMTI1IFogTTUyNy41NSw1MC4xMjUgTDUyOC41ODEzLDUwLjEyNSBRNTI4LjU4MTMsNTAuMTI1IDUyOC41ODEzLDQ4LjQ2ODggTDUyNy41NSw0OC40Njg4IFE1MjcuNTUsNDguNDY4OCA1MjcuNTUsNTAuMTI1IFogTTUyNy41NSw0NC43MTg4IFE1MjcuNTUsNDQuNzE4OCA1MjcuNTUsNDYuMzc1IEw1MjguNTgxMyw0Ni4zNzUgUTUyOC41ODEzLDQ2LjM3NSA1MjguNTgxMyw0NC43MTg4IEw1MjcuNTUsNDQuNzE4OCBaIE01MjUuMDUsNDUuMTI1IEw1MjcuOTU2Myw0NS4xMjUgTDUyNy45NTYzLDQ0LjA5MzggTDUyNS4wNSw0NC4wOTM4IEw1MjUuMDUsNDUuMTI1IFogIiBmaWxsPSIjMDAwMDAwIi8+PHRleHQgZmlsbD0iIzAwMDAwMCIgZm9udC1mYW1pbHk9IkhhY2siIGZvbnQtc2l6ZT0iMTQiIGxlbmd0aEFkanVzdD0ic3BhY2luZyIgdGV4dExlbmd0aD0iNzciIHg9IjU0MS4yIiB5PSI1My4yNDIyIj5WZWhpY2xlVHlwZTwvdGV4dD48bGluZSBzdHlsZT0ic3Ryb2tlOiMwMDAwMDA7c3Ryb2tlLXdpZHRoOjEuMDsiIHgxPSI1MDAuNSIgeDI9IjYzNS41IiB5MT0iNjAuNSIgeTI9IjYwLjUiLz48ZWxsaXBzZSBjeD0iNTEwLjUiIGN5PSI3My40OTIyIiBmaWxsPSJub25lIiByeD0iMyIgcnk9IjMiIHN0eWxlPSJzdHJva2U6IzAwMDAwMDtzdHJva2Utd2lkdGg6MS4wOyIvPjx0ZXh0IGZpbGw9IiMwMDAwMDAiIGZvbnQtZmFtaWx5PSJIYWNrIiBmb250LXNpemU9IjE0IiBsZW5ndGhBZGp1c3Q9InNwYWNpbmciIHRleHRMZW5ndGg9IjExNCIgeD0iNTE2LjUiIHk9Ijc3LjczNDQiPnR5cGVJZDogaW50ICYjMTcxO1BLJiMxODc7PC90ZXh0PjxlbGxpcHNlIGN4PSI1MTAuNSIgY3k9Ijg4LjQ3NjYiIGZpbGw9Im5vbmUiIHJ4PSIzIiByeT0iMyIgc3R5bGU9InN0cm9rZTojMDAwMDAwO3N0cm9rZS13aWR0aDoxLjA7Ii8+PHRleHQgZmlsbD0iIzAwMDAwMCIgZm9udC1mYW1pbHk9IkhhY2siIGZvbnQtc2l6ZT0iMTQiIGxlbmd0aEFkanVzdD0ic3BhY2luZyIgdGV4dExlbmd0aD0iODUiIHg9IjUxNi41IiB5PSI5Mi43MTg4Ij5uYW1lOiBzdHJpbmc8L3RleHQ+PGxpbmUgc3R5bGU9InN0cm9rZTojMDAwMDAwO3N0cm9rZS13aWR0aDoxLjA7IiB4MT0iNTAwLjUiIHgyPSI2MzUuNSIgeTE9Ijk4LjQ2ODgiIHkyPSI5OC40Njg4Ii8+PC9nPjwhLS1jbGFzcyBWZWhpY2xlLS0+PGcgaWQ9ImVsZW1fVmVoaWNsZSI+PHJlY3QgY29kZUxpbmU9IjMzIiBmaWxsPSIjRkZGRkZGIiBoZWlnaHQ9IjE0Ni44OTA2IiBpZD0iVmVoaWNsZSIgcng9IjIuNSIgcnk9IjIuNSIgc3R5bGU9InN0cm9rZTojMDAwMDAwO3N0cm9rZS13aWR0aDoxLjA7IiB3aWR0aD0iMTYzIiB4PSI0NzMuNSIgeT0iMjA0Ii8+PGVsbGlwc2UgY3g9IjUyNyIgY3k9IjIxNyIgZmlsbD0iI0ZGRkZGRiIgcng9IjgiIHJ5PSI4IiBzdHlsZT0ic3Ryb2tlOiMwMDAwMDA7c3Ryb2tlLXdpZHRoOjEuMDsiLz48cGF0aCBkPSJNNTI1LjI1LDIxOS4yMTg4IEw1MjUuMjUsMjIwLjI1IEw1MjguMTU2MywyMjAuMjUgTDUyOC4xNTYzLDIxOS4yMTg4IEw1MjUuMjUsMjE5LjIxODggWiBNNTI1LjY1NjMsMjE5LjYyNSBRNTI1LjY1NjMsMjE5LjYyNSA1MjUuNjU2MywyMTQuMjE4OCBMNTI0LjYyNSwyMTQuMjE4OCBRNTI0LjYyNSwyMTQuMjE4OCA1MjQuNjI1LDIxOS42MjUgTDUyNS42NTYzLDIxOS42MjUgWiBNNTI3Ljc1LDIxOS42MjUgTDUyOC43ODEzLDIxOS42MjUgUTUyOC43ODEzLDIxOS42MjUgNTI4Ljc4MTMsMjE3Ljk2ODggTDUyNy43NSwyMTcuOTY4OCBRNTI3Ljc1LDIxNy45Njg4IDUyNy43NSwyMTkuNjI1IFogTTUyNy43NSwyMTQuMjE4OCBRNTI3Ljc1LDIxNC4yMTg4IDUyNy43NSwyMTUuODc1IEw1MjguNzgxMywyMTUuODc1IFE1MjguNzgxMywyMTUuODc1IDUyOC43ODEzLDIxNC4yMTg4IEw1MjcuNzUsMjE0LjIxODggWiBNNTI1LjI1LDIxNC42MjUgTDUyOC4xNTYzLDIxNC42MjUgTDUyOC4xNTYzLDIxMy41OTM4IEw1MjUuMjUsMjEzLjU5MzggTDUyNS4yNSwyMTQuNjI1IFogIiBmaWxsPSIjMDAwMDAwIi8+PHRleHQgZmlsbD0iIzAwMDAwMCIgZm9udC1mYW1pbHk9IkhhY2siIGZvbnQtc2l6ZT0iMTQiIGxlbmd0aEFkanVzdD0ic3BhY2luZyIgdGV4dExlbmd0aD0iNDkiIHg9IjU0MyIgeT0iMjIyLjc0MjIiPlZlaGljbGU8L3RleHQ+PGxpbmUgc3R5bGU9InN0cm9rZTojMDAwMDAwO3N0cm9rZS13aWR0aDoxLjA7IiB4MT0iNDc0LjUiIHgyPSI2MzUuNSIgeTE9IjIzMCIgeTI9IjIzMCIvPjxlbGxpcHNlIGN4PSI0ODQuNSIgY3k9IjI0Mi45OTIyIiBmaWxsPSJub25lIiByeD0iMyIgcnk9IjMiIHN0eWxlPSJzdHJva2U6IzAwMDAwMDtzdHJva2Utd2lkdGg6MS4wOyIvPjx0ZXh0IGZpbGw9IiMwMDAwMDAiIGZvbnQtZmFtaWx5PSJIYWNrIiBmb250LXNpemU9IjE0IiBsZW5ndGhBZGp1c3Q9InNwYWNpbmciIHRleHRMZW5ndGg9IjEzNSIgeD0iNDkwLjUiIHk9IjI0Ny4yMzQ0Ij52ZWhpY2xlSWQ6IGludCAmIzE3MTtQSyYjMTg3OzwvdGV4dD48ZWxsaXBzZSBjeD0iNDg0LjUiIGN5PSIyNTcuOTc2NiIgZmlsbD0ibm9uZSIgcng9IjMiIHJ5PSIzIiBzdHlsZT0ic3Ryb2tlOiMwMDAwMDA7c3Ryb2tlLXdpZHRoOjEuMDsiLz48dGV4dCBmaWxsPSIjMDAwMDAwIiBmb250LWZhbWlseT0iSGFjayIgZm9udC1zaXplPSIxNCIgbGVuZ3RoQWRqdXN0PSJzcGFjaW5nIiB0ZXh0TGVuZ3RoPSI5OCIgeD0iNDkwLjUiIHk9IjI2Mi4yMTg4Ij5kcml2ZXI6IERyaXZlcjwvdGV4dD48ZWxsaXBzZSBjeD0iNDg0LjUiIGN5PSIyNzIuOTYwOSIgZmlsbD0ibm9uZSIgcng9IjMiIHJ5PSIzIiBzdHlsZT0ic3Ryb2tlOiMwMDAwMDA7c3Ryb2tlLXdpZHRoOjEuMDsiLz48dGV4dCBmaWxsPSIjMDAwMDAwIiBmb250LWZhbWlseT0iSGFjayIgZm9udC1zaXplPSIxNCIgbGVuZ3RoQWRqdXN0PSJzcGFjaW5nIiB0ZXh0TGVuZ3RoPSIxMTkiIHg9IjQ5MC41IiB5PSIyNzcuMjAzMSI+dHlwZTogVmVoaWNsZVR5cGU8L3RleHQ+PGVsbGlwc2UgY3g9IjQ4NC41IiBjeT0iMjg3Ljk0NTMiIGZpbGw9Im5vbmUiIHJ4PSIzIiByeT0iMyIgc3R5bGU9InN0cm9rZTojMDAwMDAwO3N0cm9rZS13aWR0aDoxLjA7Ii8+PHRleHQgZmlsbD0iIzAwMDAwMCIgZm9udC1mYW1pbHk9IkhhY2siIGZvbnQtc2l6ZT0iMTQiIGxlbmd0aEFkanVzdD0ic3BhY2luZyIgdGV4dExlbmd0aD0iOTEiIHg9IjQ5MC41IiB5PSIyOTIuMTg3NSI+YnJhbmQ6IHN0cmluZzwvdGV4dD48ZWxsaXBzZSBjeD0iNDg0LjUiIGN5PSIzMDIuOTI5NyIgZmlsbD0ibm9uZSIgcng9IjMiIHJ5PSIzIiBzdHlsZT0ic3Ryb2tlOiMwMDAwMDA7c3Ryb2tlLXdpZHRoOjEuMDsiLz48dGV4dCBmaWxsPSIjMDAwMDAwIiBmb250LWZhbWlseT0iSGFjayIgZm9udC1zaXplPSIxNCIgbGVuZ3RoQWRqdXN0PSJzcGFjaW5nIiB0ZXh0TGVuZ3RoPSI5MiIgeD0iNDkwLjUiIHk9IjMwNy4xNzE5Ij5tb2RlbDogc3RyaW5nPC90ZXh0PjxlbGxpcHNlIGN4PSI0ODQuNSIgY3k9IjMxNy45MTQxIiBmaWxsPSJub25lIiByeD0iMyIgcnk9IjMiIHN0eWxlPSJzdHJva2U6IzAwMDAwMDtzdHJva2Utd2lkdGg6MS4wOyIvPjx0ZXh0IGZpbGw9IiMwMDAwMDAiIGZvbnQtZmFtaWx5PSJIYWNrIiBmb250LXNpemU9IjE0IiBsZW5ndGhBZGp1c3Q9InNwYWNpbmciIHRleHRMZW5ndGg9IjcwIiB4PSI0OTAuNSIgeT0iMzIyLjE1NjMiPnNlYXRzOiBpbnQ8L3RleHQ+PGVsbGlwc2UgY3g9IjQ4NC41IiBjeT0iMzMyLjg5ODQiIGZpbGw9Im5vbmUiIHJ4PSIzIiByeT0iMyIgc3R5bGU9InN0cm9rZTojMDAwMDAwO3N0cm9rZS13aWR0aDoxLjA7Ii8+PHRleHQgZmlsbD0iIzAwMDAwMCIgZm9udC1mYW1pbHk9IkhhY2siIGZvbnQtc2l6ZT0iMTQiIGxlbmd0aEFkanVzdD0ic3BhY2luZyIgdGV4dExlbmd0aD0iMTQwIiB4PSI0OTAuNSIgeT0iMzM3LjE0MDYiPnJlZ2lzdHJhdGlvbjogc3RyaW5nPC90ZXh0PjxsaW5lIHN0eWxlPSJzdHJva2U6IzAwMDAwMDtzdHJva2Utd2lkdGg6MS4wOyIgeDE9IjQ3NC41IiB4Mj0iNjM1LjUiIHkxPSIzNDIuODkwNiIgeTI9IjM0Mi44OTA2Ii8+PC9nPjwhLS1jbGFzcyBUcmlwLS0+PGcgaWQ9ImVsZW1fVHJpcCI+PHJlY3QgY29kZUxpbmU9IjQzIiBmaWxsPSIjRkZGRkZGIiBoZWlnaHQ9IjE3Ni44NTk0IiBpZD0iVHJpcCIgcng9IjIuNSIgcnk9IjIuNSIgc3R5bGU9InN0cm9rZTojMDAwMDAwO3N0cm9rZS13aWR0aDoxLjA7IiB3aWR0aD0iMTM3IiB4PSIyNzYuNSIgeT0iMTg5Ii8+PGVsbGlwc2UgY3g9IjMyNy41IiBjeT0iMjAyIiBmaWxsPSIjRkZGRkZGIiByeD0iOCIgcnk9IjgiIHN0eWxlPSJzdHJva2U6IzAwMDAwMDtzdHJva2Utd2lkdGg6MS4wOyIvPjxwYXRoIGQ9Ik0zMjUuNzUsMjA0LjIxODggTDMyNS43NSwyMDUuMjUgTDMyOC42NTYzLDIwNS4yNSBMMzI4LjY1NjMsMjA0LjIxODggTDMyNS43NSwyMDQuMjE4OCBaIE0zMjYuMTU2MywyMDQuNjI1IFEzMjYuMTU2MywyMDQuNjI1IDMyNi4xNTYzLDE5OS4yMTg4IEwzMjUuMTI1LDE5OS4yMTg4IFEzMjUuMTI1LDE5OS4yMTg4IDMyNS4xMjUsMjA0LjYyNSBMMzI2LjE1NjMsMjA0LjYyNSBaIE0zMjguMjUsMjA0LjYyNSBMMzI5LjI4MTMsMjA0LjYyNSBRMzI5LjI4MTMsMjA0LjYyNSAzMjkuMjgxMywyMDIuOTY4OCBMMzI4LjI1LDIwMi45Njg4IFEzMjguMjUsMjAyLjk2ODggMzI4LjI1LDIwNC42MjUgWiBNMzI4LjI1LDE5OS4yMTg4IFEzMjguMjUsMTk5LjIxODggMzI4LjI1LDIwMC44NzUgTDMyOS4yODEzLDIwMC44NzUgUTMyOS4yODEzLDIwMC44NzUgMzI5LjI4MTMsMTk5LjIxODggTDMyOC4yNSwxOTkuMjE4OCBaIE0zMjUuNzUsMTk5LjYyNSBMMzI4LjY1NjMsMTk5LjYyNSBMMzI4LjY1NjMsMTk4LjU5MzggTDMyNS43NSwxOTguNTkzOCBMMzI1Ljc1LDE5OS42MjUgWiAiIGZpbGw9IiMwMDAwMDAiLz48dGV4dCBmaWxsPSIjMDAwMDAwIiBmb250LWZhbWlseT0iSGFjayIgZm9udC1zaXplPSIxNCIgbGVuZ3RoQWRqdXN0PSJzcGFjaW5nIiB0ZXh0TGVuZ3RoPSIyOCIgeD0iMzQzLjUiIHk9IjIwNy43NDIyIj5UcmlwPC90ZXh0PjxsaW5lIHN0eWxlPSJzdHJva2U6IzAwMDAwMDtzdHJva2Utd2lkdGg6MS4wOyIgeDE9IjI3Ny41IiB4Mj0iNDEyLjUiIHkxPSIyMTUiIHkyPSIyMTUiLz48ZWxsaXBzZSBjeD0iMjg3LjUiIGN5PSIyMjcuOTkyMiIgZmlsbD0ibm9uZSIgcng9IjMiIHJ5PSIzIiBzdHlsZT0ic3Ryb2tlOiMwMDAwMDA7c3Ryb2tlLXdpZHRoOjEuMDsiLz48dGV4dCBmaWxsPSIjMDAwMDAwIiBmb250LWZhbWlseT0iSGFjayIgZm9udC1zaXplPSIxNCIgbGVuZ3RoQWRqdXN0PSJzcGFjaW5nIiB0ZXh0TGVuZ3RoPSIxMTQiIHg9IjI5My41IiB5PSIyMzIuMjM0NCI+dHJpcElkOiBpbnQgJiMxNzE7UEsmIzE4Nzs8L3RleHQ+PGVsbGlwc2UgY3g9IjI4Ny41IiBjeT0iMjQyLjk3NjYiIGZpbGw9Im5vbmUiIHJ4PSIzIiByeT0iMyIgc3R5bGU9InN0cm9rZTojMDAwMDAwO3N0cm9rZS13aWR0aDoxLjA7Ii8+PHRleHQgZmlsbD0iIzAwMDAwMCIgZm9udC1mYW1pbHk9IkhhY2siIGZvbnQtc2l6ZT0iMTQiIGxlbmd0aEFkanVzdD0ic3BhY2luZyIgdGV4dExlbmd0aD0iNzAiIHg9IjI5My41IiB5PSIyNDcuMjE4OCI+dXNlcjogVXNlcjwvdGV4dD48ZWxsaXBzZSBjeD0iMjg3LjUiIGN5PSIyNTcuOTYwOSIgZmlsbD0ibm9uZSIgcng9IjMiIHJ5PSIzIiBzdHlsZT0ic3Ryb2tlOiMwMDAwMDA7c3Ryb2tlLXdpZHRoOjEuMDsiLz48dGV4dCBmaWxsPSIjMDAwMDAwIiBmb250LWZhbWlseT0iSGFjayIgZm9udC1zaXplPSIxNCIgbGVuZ3RoQWRqdXN0PSJzcGFjaW5nIiB0ZXh0TGVuZ3RoPSI5OCIgeD0iMjkzLjUiIHk9IjI2Mi4yMDMxIj5kcml2ZXI6IERyaXZlcjwvdGV4dD48ZWxsaXBzZSBjeD0iMjg3LjUiIGN5PSIyNzIuOTQ1MyIgZmlsbD0ibm9uZSIgcng9IjMiIHJ5PSIzIiBzdHlsZT0ic3Ryb2tlOiMwMDAwMDA7c3Ryb2tlLXdpZHRoOjEuMDsiLz48dGV4dCBmaWxsPSIjMDAwMDAwIiBmb250LWZhbWlseT0iSGFjayIgZm9udC1zaXplPSIxNCIgbGVuZ3RoQWRqdXN0PSJzcGFjaW5nIiB0ZXh0TGVuZ3RoPSIxMTIiIHg9IjI5My41IiB5PSIyNzcuMTg3NSI+dmVoaWNsZTogVmVoaWNsZTwvdGV4dD48ZWxsaXBzZSBjeD0iMjg3LjUiIGN5PSIyODcuOTI5NyIgZmlsbD0ibm9uZSIgcng9IjMiIHJ5PSIzIiBzdHlsZT0ic3Ryb2tlOiMwMDAwMDA7c3Ryb2tlLXdpZHRoOjEuMDsiLz48dGV4dCBmaWxsPSIjMDAwMDAwIiBmb250LWZhbWlseT0iSGFjayIgZm9udC1zaXplPSIxNCIgbGVuZ3RoQWRqdXN0PSJzcGFjaW5nIiB0ZXh0TGVuZ3RoPSIxMDUiIHg9IjI5My41IiB5PSIyOTIuMTcxOSI+c3RhcnREYXRlOiBkYXRlPC90ZXh0PjxlbGxpcHNlIGN4PSIyODcuNSIgY3k9IjMwMi45MTQxIiBmaWxsPSJub25lIiByeD0iMyIgcnk9IjMiIHN0eWxlPSJzdHJva2U6IzAwMDAwMDtzdHJva2Utd2lkdGg6MS4wOyIvPjx0ZXh0IGZpbGw9IiMwMDAwMDAiIGZvbnQtZmFtaWx5PSJIYWNrIiBmb250LXNpemU9IjE0IiBsZW5ndGhBZGp1c3Q9InNwYWNpbmciIHRleHRMZW5ndGg9IjEwNyIgeD0iMjkzLjUiIHk9IjMwNy4xNTYzIj5zdGFydFRpbWU6IHRpbWU8L3RleHQ+PGVsbGlwc2UgY3g9IjI4Ny41IiBjeT0iMzE3Ljg5ODQiIGZpbGw9Im5vbmUiIHJ4PSIzIiByeT0iMyIgc3R5bGU9InN0cm9rZTojMDAwMDAwO3N0cm9rZS13aWR0aDoxLjA7Ii8+PHRleHQgZmlsbD0iIzAwMDAwMCIgZm9udC1mYW1pbHk9IkhhY2siIGZvbnQtc2l6ZT0iMTQiIGxlbmd0aEFkanVzdD0ic3BhY2luZyIgdGV4dExlbmd0aD0iMTA1IiB4PSIyOTMuNSIgeT0iMzIyLjE0MDYiPmRpc3RhbmNlOiBmbG9hdDwvdGV4dD48ZWxsaXBzZSBjeD0iMjg3LjUiIGN5PSIzMzIuODgyOCIgZmlsbD0ibm9uZSIgcng9IjMiIHJ5PSIzIiBzdHlsZT0ic3Ryb2tlOiMwMDAwMDA7c3Ryb2tlLXdpZHRoOjEuMDsiLz48dGV4dCBmaWxsPSIjMDAwMDAwIiBmb250LWZhbWlseT0iSGFjayIgZm9udC1zaXplPSIxNCIgbGVuZ3RoQWRqdXN0PSJzcGFjaW5nIiB0ZXh0TGVuZ3RoPSIxMTIiIHg9IjI5My41IiB5PSIzMzcuMTI1Ij5kdXJhdGlvbjogc3RyaW5nPC90ZXh0PjxlbGxpcHNlIGN4PSIyODcuNSIgY3k9IjM0Ny44NjcyIiBmaWxsPSJub25lIiByeD0iMyIgcnk9IjMiIHN0eWxlPSJzdHJva2U6IzAwMDAwMDtzdHJva2Utd2lkdGg6MS4wOyIvPjx0ZXh0IGZpbGw9IiMwMDAwMDAiIGZvbnQtZmFtaWx5PSJIYWNrIiBmb250LXNpemU9IjE0IiBsZW5ndGhBZGp1c3Q9InNwYWNpbmciIHRleHRMZW5ndGg9Ijk4IiB4PSIyOTMuNSIgeT0iMzUyLjEwOTQiPnN0YXR1czogc3RyaW5nPC90ZXh0PjxsaW5lIHN0eWxlPSJzdHJva2U6IzAwMDAwMDtzdHJva2Utd2lkdGg6MS4wOyIgeDE9IjI3Ny41IiB4Mj0iNDEyLjUiIHkxPSIzNTcuODU5NCIgeTI9IjM1Ny44NTk0Ii8+PC9nPjwhLS1jbGFzcyBSZXZpZXctLT48ZyBpZD0iZWxlbV9SZXZpZXciPjxyZWN0IGNvZGVMaW5lPSI1NSIgZmlsbD0iI0ZGRkZGRiIgaGVpZ2h0PSIxMDEuOTM3NSIgaWQ9IlJldmlldyIgcng9IjIuNSIgcnk9IjIuNSIgc3R5bGU9InN0cm9rZTojMDAwMDAwO3N0cm9rZS13aWR0aDoxLjA7IiB3aWR0aD0iMTUyIiB4PSIyMDgiIHk9IjQyNiIvPjxlbGxpcHNlIGN4PSIyNTkiIGN5PSI0MzkiIGZpbGw9IiNGRkZGRkYiIHJ4PSI4IiByeT0iOCIgc3R5bGU9InN0cm9rZTojMDAwMDAwO3N0cm9rZS13aWR0aDoxLjA7Ii8+PHBhdGggZD0iTTI1Ny4yNSw0NDEuMjE4OCBMMjU3LjI1LDQ0Mi4yNSBMMjYwLjE1NjMsNDQyLjI1IEwyNjAuMTU2Myw0NDEuMjE4OCBMMjU3LjI1LDQ0MS4yMTg4IFogTTI1Ny42NTYzLDQ0MS42MjUgUTI1Ny42NTYzLDQ0MS42MjUgMjU3LjY1NjMsNDM2LjIxODggTDI1Ni42MjUsNDM2LjIxODggUTI1Ni42MjUsNDM2LjIxODggMjU2LjYyNSw0NDEuNjI1IEwyNTcuNjU2Myw0NDEuNjI1IFogTTI1OS43NSw0NDEuNjI1IEwyNjAuNzgxMyw0NDEuNjI1IFEyNjAuNzgxMyw0NDEuNjI1IDI2MC43ODEzLDQzOS45Njg4IEwyNTkuNzUsNDM5Ljk2ODggUTI1OS43NSw0MzkuOTY4OCAyNTkuNzUsNDQxLjYyNSBaIE0yNTkuNzUsNDM2LjIxODggUTI1OS43NSw0MzYuMjE4OCAyNTkuNzUsNDM3Ljg3NSBMMjYwLjc4MTMsNDM3Ljg3NSBRMjYwLjc4MTMsNDM3Ljg3NSAyNjAuNzgxMyw0MzYuMjE4OCBMMjU5Ljc1LDQzNi4yMTg4IFogTTI1Ny4yNSw0MzYuNjI1IEwyNjAuMTU2Myw0MzYuNjI1IEwyNjAuMTU2Myw0MzUuNTkzOCBMMjU3LjI1LDQzNS41OTM4IEwyNTcuMjUsNDM2LjYyNSBaICIgZmlsbD0iIzAwMDAwMCIvPjx0ZXh0IGZpbGw9IiMwMDAwMDAiIGZvbnQtZmFtaWx5PSJIYWNrIiBmb250LXNpemU9IjE0IiBsZW5ndGhBZGp1c3Q9InNwYWNpbmciIHRleHRMZW5ndGg9IjQzIiB4PSIyNzUiIHk9IjQ0NC43NDIyIj5SZXZpZXc8L3RleHQ+PGxpbmUgc3R5bGU9InN0cm9rZTojMDAwMDAwO3N0cm9rZS13aWR0aDoxLjA7IiB4MT0iMjA5IiB4Mj0iMzU5IiB5MT0iNDUyIiB5Mj0iNDUyIi8+PGVsbGlwc2UgY3g9IjIxOSIgY3k9IjQ2NC45OTIyIiBmaWxsPSJub25lIiByeD0iMyIgcnk9IjMiIHN0eWxlPSJzdHJva2U6IzAwMDAwMDtzdHJva2Utd2lkdGg6MS4wOyIvPjx0ZXh0IGZpbGw9IiMwMDAwMDAiIGZvbnQtZmFtaWx5PSJIYWNrIiBmb250LXNpemU9IjE0IiBsZW5ndGhBZGp1c3Q9InNwYWNpbmciIHRleHRMZW5ndGg9IjEyOSIgeD0iMjI1IiB5PSI0NjkuMjM0NCI+cmV2aWV3SWQ6IGludCAmIzE3MTtQSyYjMTg3OzwvdGV4dD48ZWxsaXBzZSBjeD0iMjE5IiBjeT0iNDc5Ljk3NjYiIGZpbGw9Im5vbmUiIHJ4PSIzIiByeT0iMyIgc3R5bGU9InN0cm9rZTojMDAwMDAwO3N0cm9rZS13aWR0aDoxLjA7Ii8+PHRleHQgZmlsbD0iIzAwMDAwMCIgZm9udC1mYW1pbHk9IkhhY2siIGZvbnQtc2l6ZT0iMTQiIGxlbmd0aEFkanVzdD0ic3BhY2luZyIgdGV4dExlbmd0aD0iNzAiIHg9IjIyNSIgeT0iNDg0LjIxODgiPnRyaXA6IFRyaXA8L3RleHQ+PGVsbGlwc2UgY3g9IjIxOSIgY3k9IjQ5NC45NjA5IiBmaWxsPSJub25lIiByeD0iMyIgcnk9IjMiIHN0eWxlPSJzdHJva2U6IzAwMDAwMDtzdHJva2Utd2lkdGg6MS4wOyIvPjx0ZXh0IGZpbGw9IiMwMDAwMDAiIGZvbnQtZmFtaWx5PSJIYWNrIiBmb250LXNpemU9IjE0IiBsZW5ndGhBZGp1c3Q9InNwYWNpbmciIHRleHRMZW5ndGg9IjEwNyIgeD0iMjI1IiB5PSI0OTkuMjAzMSI+Y29tbWVudDogc3RyaW5nPC90ZXh0PjxlbGxpcHNlIGN4PSIyMTkiIGN5PSI1MDkuOTQ1MyIgZmlsbD0ibm9uZSIgcng9IjMiIHJ5PSIzIiBzdHlsZT0ic3Ryb2tlOiMwMDAwMDA7c3Ryb2tlLXdpZHRoOjEuMDsiLz48dGV4dCBmaWxsPSIjMDAwMDAwIiBmb250LWZhbWlseT0iSGFjayIgZm9udC1zaXplPSIxNCIgbGVuZ3RoQWRqdXN0PSJzcGFjaW5nIiB0ZXh0TGVuZ3RoPSI3NyIgeD0iMjI1IiB5PSI1MTQuMTg3NSI+cmF0aW5nOiBpbnQ8L3RleHQ+PGxpbmUgc3R5bGU9InN0cm9rZTojMDAwMDAwO3N0cm9rZS13aWR0aDoxLjA7IiB4MT0iMjA5IiB4Mj0iMzU5IiB5MT0iNTE5LjkzNzUiIHkyPSI1MTkuOTM3NSIvPjwvZz48IS0tbGluayBVc2VyIHRvIFByb2ZpbGUtLT48ZyBpZD0ibGlua19Vc2VyX1Byb2ZpbGUiPjxwYXRoIGNvZGVMaW5lPSI2MiIgZD0iTTE4MC44OSwxMjEuNjUgQzE2MC45MywxNTYuMDIgMTM0Ljc1LDIwMS4xNCAxMTUuNzksMjMzLjggIiBmaWxsPSJub25lIiBpZD0iVXNlci1Qcm9maWxlIiBzdHlsZT0ic3Ryb2tlOiMwMDAwMDA7c3Ryb2tlLXdpZHRoOjEuMDsiLz48L2c+PCEtLWxpbmsgVXNlciB0byBUcmlwLS0+PGcgaWQ9ImxpbmtfVXNlcl9UcmlwIj48cGF0aCBjb2RlTGluZT0iNjMiIGQ9Ik0yNDMuMDIsMTIxLjY1IEMyNTYuMzcsMTQxLjkyIDI3Mi4xOCwxNjUuOTIgMjg3LjMxLDE4OC45ICIgZmlsbD0ibm9uZSIgaWQ9IlVzZXItVHJpcCIgc3R5bGU9InN0cm9rZTojMDAwMDAwO3N0cm9rZS13aWR0aDoxLjA7Ii8+PC9nPjwhLS1saW5rIERyaXZlciB0byBUcmlwLS0+PGcgaWQ9ImxpbmtfRHJpdmVyX1RyaXAiPjxwYXRoIGNvZGVMaW5lPSI2NCIgZD0iTTM3Ni42MywxMjkuMTUgQzM3Mi42NiwxNDcuNjIgMzY4LjE4LDE2OC41MiAzNjMuODYsMTg4LjY1ICIgZmlsbD0ibm9uZSIgaWQ9IkRyaXZlci1UcmlwIiBzdHlsZT0ic3Ryb2tlOiMwMDAwMDA7c3Ryb2tlLXdpZHRoOjEuMDsiLz48L2c+PCEtLWxpbmsgRHJpdmVyIHRvIFZlaGljbGUtLT48ZyBpZD0ibGlua19Ecml2ZXJfVmVoaWNsZSI+PHBhdGggY29kZUxpbmU9IjY1IiBkPSJNNDM1LjY4LDEyOS4xNSBDNDU0LjQ4LDE1Mi4zNiA0NzYuMzcsMTc5LjM5IDQ5Ni4yMywyMDMuOTIgIiBmaWxsPSJub25lIiBpZD0iRHJpdmVyLVZlaGljbGUiIHN0eWxlPSJzdHJva2U6IzAwMDAwMDtzdHJva2Utd2lkdGg6MS4wOyIvPjwvZz48IS0tbGluayBWZWhpY2xlVHlwZSB0byBWZWhpY2xlLS0+PGcgaWQ9ImxpbmtfVmVoaWNsZVR5cGVfVmVoaWNsZSI+PHBhdGggY29kZUxpbmU9IjY2IiBkPSJNNTY1Ljc3LDEwNi43NCBDNTY0LjA3LDEzMy40MSA1NjEuNjksMTcwLjk3IDU1OS42LDIwMy45NyAiIGZpbGw9Im5vbmUiIGlkPSJWZWhpY2xlVHlwZS1WZWhpY2xlIiBzdHlsZT0ic3Ryb2tlOiMwMDAwMDA7c3Ryb2tlLXdpZHRoOjEuMDsiLz48L2c+PCEtLWxpbmsgVXNlciB0byBSZXZpZXctLT48ZyBpZD0ibGlua19Vc2VyX1JldmlldyI+PHBhdGggY29kZUxpbmU9IjY3IiBkPSJNMjE3LjQzLDEyMS42OSBDMjI2LjM1LDE4MC40MyAyNDIuMiwyODAuNTYgMjU5LDM2NiBDMjYyLjg1LDM4NS42IDI2Ny42MSw0MDcuMDQgMjcxLjkzLDQyNS43NSAiIGZpbGw9Im5vbmUiIGlkPSJVc2VyLVJldmlldyIgc3R5bGU9InN0cm9rZTojMDAwMDAwO3N0cm9rZS13aWR0aDoxLjA7Ii8+PC9nPjwhLS1saW5rIFRyaXAgdG8gUmV2aWV3LS0+PGcgaWQ9ImxpbmtfVHJpcF9SZXZpZXciPjxwYXRoIGNvZGVMaW5lPSI2OCIgZD0iTTMxNy44OSwzNjYuMjggQzMxMS41OSwzODYuNjcgMzA1LjA5LDQwNy43MSAyOTkuNSw0MjUuODMgIiBmaWxsPSJub25lIiBpZD0iVHJpcC1SZXZpZXciIHN0eWxlPSJzdHJva2U6IzAwMDAwMDtzdHJva2Utd2lkdGg6MS4wOyIvPjwvZz48IS0tU1JDPVtaTEZUUWk4bTZCdGxLeUpodUdpSzRNR3c0MXM4VFdFbEhqUHlyR19vS3Y5TzZNRmxsZllhTU1qclU1RG9KZkJwYXdHWlVtRzFIMllmaWNwNGU0ODlQQkRUbGl3cy11X0xPYXljYXlyZ0VhckpwLWxQUmFUQUplcjl0Q2pvaVB3SjJlNnBCMGlCdFduZXlmcUh5YUhFUmhYYUVLNWZreTlmSmI4MUVKNU1lcG51NFdINXRjRGd2dFBNY1lOb2ZfTlBRNUtYWHNYTDFfSVZNLXdaWFRMNzlNNGVFVFZPZkYzQ1d0azJXLVh6SVJ5NE1HenBCNDZRNnhSbFNDSUlHXzVManNzaTZweGFWQXFIenBTMXRQQzhyVkJPRHBkY3RJSVVfVEhLemFpOG5RMV9HbVFlRFR4N0dtcTdUQkZLZWZCM2M4TjZra3RlWFd6VXJ1c3lpTTZBN0E5T2drc1NNYVNwel90WjJob1NjTk5WZUVTSUtiYXdna0FBWGpwaVQ5S3ZSaE9kQ3dvblhHUlg3OGplMy12TGtUSkNWTXlGSW9LNElEanBrSFpCR3BYMlAtNV9lRjZ1VlUwOVV1dHVIOFVtRk9Wa08taEdoS1g4ZGxieElGME5dLS0+PC9nPjwvc3ZnPg==;" parent="1" vertex="1">
            <mxGeometry width="361.24" height="300" as="geometry" />
          </mxCell>
        </UserObject>
        <mxCell id="LmMj2YxexdQPXTSgJy5m-66" style="edgeStyle=none;rounded=0;orthogonalLoop=1;jettySize=auto;html=1;exitX=0;exitY=0.5;exitDx=0;exitDy=0;endArrow=none;endFill=0;" parent="1" source="LmMj2YxexdQPXTSgJy5m-2" target="LmMj2YxexdQPXTSgJy5m-24" edge="1">
          <mxGeometry relative="1" as="geometry" />
        </mxCell>
        <mxCell id="LmMj2YxexdQPXTSgJy5m-68" style="edgeStyle=none;rounded=0;orthogonalLoop=1;jettySize=auto;html=1;exitX=0;exitY=0.5;exitDx=0;exitDy=0;endArrow=none;endFill=0;" parent="1" source="LmMj2YxexdQPXTSgJy5m-2" target="LmMj2YxexdQPXTSgJy5m-22" edge="1">
          <mxGeometry relative="1" as="geometry" />
        </mxCell>
        <mxCell id="LmMj2YxexdQPXTSgJy5m-69" style="edgeStyle=none;rounded=0;orthogonalLoop=1;jettySize=auto;html=1;exitX=0;exitY=0.5;exitDx=0;exitDy=0;endArrow=none;endFill=0;" parent="1" source="LmMj2YxexdQPXTSgJy5m-2" target="LmMj2YxexdQPXTSgJy5m-12" edge="1">
          <mxGeometry relative="1" as="geometry" />
        </mxCell>
        <mxCell id="yXfQ48dsX-8Y80jc49_D-4" style="edgeStyle=orthogonalEdgeStyle;rounded=0;orthogonalLoop=1;jettySize=auto;html=1;exitX=0.5;exitY=1;exitDx=0;exitDy=0;entryX=0.5;entryY=0;entryDx=0;entryDy=0;endArrow=none;endFill=0;startArrow=ERone;startFill=0;" edge="1" parent="1" source="LmMj2YxexdQPXTSgJy5m-2" target="yXfQ48dsX-8Y80jc49_D-1">
          <mxGeometry relative="1" as="geometry" />
        </mxCell>
        <mxCell id="yXfQ48dsX-8Y80jc49_D-7" style="edgeStyle=orthogonalEdgeStyle;rounded=0;orthogonalLoop=1;jettySize=auto;html=1;exitX=0.75;exitY=1;exitDx=0;exitDy=0;entryX=0.5;entryY=0;entryDx=0;entryDy=0;startArrow=ERone;startFill=0;endArrow=none;endFill=0;" edge="1" parent="1" source="LmMj2YxexdQPXTSgJy5m-2" target="yXfQ48dsX-8Y80jc49_D-6">
          <mxGeometry relative="1" as="geometry" />
        </mxCell>
        <mxCell id="LmMj2YxexdQPXTSgJy5m-2" value="user" style="rounded=1;whiteSpace=wrap;html=1;" parent="1" vertex="1">
          <mxGeometry x="170" y="430" width="70" height="40" as="geometry" />
        </mxCell>
        <mxCell id="LmMj2YxexdQPXTSgJy5m-62" style="edgeStyle=none;rounded=0;orthogonalLoop=1;jettySize=auto;html=1;exitX=0.5;exitY=0;exitDx=0;exitDy=0;entryX=1;entryY=1;entryDx=0;entryDy=0;endArrow=none;endFill=0;" parent="1" source="LmMj2YxexdQPXTSgJy5m-3" target="LmMj2YxexdQPXTSgJy5m-26" edge="1">
          <mxGeometry relative="1" as="geometry" />
        </mxCell>
        <mxCell id="LmMj2YxexdQPXTSgJy5m-63" style="edgeStyle=none;rounded=0;orthogonalLoop=1;jettySize=auto;html=1;exitX=0.5;exitY=0;exitDx=0;exitDy=0;endArrow=none;endFill=0;" parent="1" source="LmMj2YxexdQPXTSgJy5m-3" target="LmMj2YxexdQPXTSgJy5m-27" edge="1">
          <mxGeometry relative="1" as="geometry" />
        </mxCell>
        <mxCell id="LmMj2YxexdQPXTSgJy5m-65" style="edgeStyle=none;rounded=0;orthogonalLoop=1;jettySize=auto;html=1;exitX=0.5;exitY=0;exitDx=0;exitDy=0;entryX=0;entryY=1;entryDx=0;entryDy=0;endArrow=none;endFill=0;" parent="1" source="LmMj2YxexdQPXTSgJy5m-3" target="LmMj2YxexdQPXTSgJy5m-29" edge="1">
          <mxGeometry relative="1" as="geometry" />
        </mxCell>
        <mxCell id="yXfQ48dsX-8Y80jc49_D-16" style="edgeStyle=orthogonalEdgeStyle;rounded=0;orthogonalLoop=1;jettySize=auto;html=1;exitX=0.5;exitY=1;exitDx=0;exitDy=0;entryX=0.5;entryY=0;entryDx=0;entryDy=0;endArrow=none;endFill=0;startArrow=ERone;startFill=0;" edge="1" parent="1" source="LmMj2YxexdQPXTSgJy5m-3" target="yXfQ48dsX-8Y80jc49_D-15">
          <mxGeometry relative="1" as="geometry" />
        </mxCell>
        <mxCell id="LmMj2YxexdQPXTSgJy5m-3" value="driver" style="rounded=1;whiteSpace=wrap;html=1;" parent="1" vertex="1">
          <mxGeometry x="361.24" y="430" width="70" height="40" as="geometry" />
        </mxCell>
        <mxCell id="LmMj2YxexdQPXTSgJy5m-60" style="edgeStyle=none;rounded=0;orthogonalLoop=1;jettySize=auto;html=1;exitX=1;exitY=0.5;exitDx=0;exitDy=0;entryX=0;entryY=0.5;entryDx=0;entryDy=0;endArrow=none;endFill=0;" parent="1" source="LmMj2YxexdQPXTSgJy5m-4" target="LmMj2YxexdQPXTSgJy5m-30" edge="1">
          <mxGeometry relative="1" as="geometry" />
        </mxCell>
        <mxCell id="LmMj2YxexdQPXTSgJy5m-4" value="vehicletype" style="rounded=1;whiteSpace=wrap;html=1;" parent="1" vertex="1">
          <mxGeometry x="500" y="410" width="70" height="40" as="geometry" />
        </mxCell>
        <mxCell id="LmMj2YxexdQPXTSgJy5m-53" style="edgeStyle=none;rounded=0;orthogonalLoop=1;jettySize=auto;html=1;exitX=1;exitY=0.5;exitDx=0;exitDy=0;entryX=0;entryY=0.5;entryDx=0;entryDy=0;endArrow=none;endFill=0;" parent="1" source="LmMj2YxexdQPXTSgJy5m-5" target="LmMj2YxexdQPXTSgJy5m-20" edge="1">
          <mxGeometry relative="1" as="geometry" />
        </mxCell>
        <mxCell id="LmMj2YxexdQPXTSgJy5m-54" style="edgeStyle=none;rounded=0;orthogonalLoop=1;jettySize=auto;html=1;exitX=1;exitY=0.5;exitDx=0;exitDy=0;endArrow=none;endFill=0;" parent="1" source="LmMj2YxexdQPXTSgJy5m-5" target="LmMj2YxexdQPXTSgJy5m-35" edge="1">
          <mxGeometry relative="1" as="geometry" />
        </mxCell>
        <mxCell id="LmMj2YxexdQPXTSgJy5m-55" style="edgeStyle=none;rounded=0;orthogonalLoop=1;jettySize=auto;html=1;exitX=1;exitY=0.5;exitDx=0;exitDy=0;entryX=0;entryY=0.5;entryDx=0;entryDy=0;endArrow=none;endFill=0;" parent="1" source="LmMj2YxexdQPXTSgJy5m-5" target="LmMj2YxexdQPXTSgJy5m-36" edge="1">
          <mxGeometry relative="1" as="geometry" />
        </mxCell>
        <mxCell id="LmMj2YxexdQPXTSgJy5m-56" style="edgeStyle=none;rounded=0;orthogonalLoop=1;jettySize=auto;html=1;exitX=1;exitY=0.5;exitDx=0;exitDy=0;entryX=0;entryY=0.5;entryDx=0;entryDy=0;endArrow=none;endFill=0;" parent="1" source="LmMj2YxexdQPXTSgJy5m-5" target="LmMj2YxexdQPXTSgJy5m-37" edge="1">
          <mxGeometry relative="1" as="geometry" />
        </mxCell>
        <mxCell id="LmMj2YxexdQPXTSgJy5m-57" style="edgeStyle=none;rounded=0;orthogonalLoop=1;jettySize=auto;html=1;exitX=1;exitY=0.5;exitDx=0;exitDy=0;entryX=0;entryY=0.5;entryDx=0;entryDy=0;endArrow=none;endFill=0;" parent="1" source="LmMj2YxexdQPXTSgJy5m-5" target="LmMj2YxexdQPXTSgJy5m-38" edge="1">
          <mxGeometry relative="1" as="geometry" />
        </mxCell>
        <mxCell id="LmMj2YxexdQPXTSgJy5m-5" value="vehicle" style="rounded=1;whiteSpace=wrap;html=1;" parent="1" vertex="1">
          <mxGeometry x="500" y="560" width="70" height="40" as="geometry" />
        </mxCell>
        <mxCell id="LmMj2YxexdQPXTSgJy5m-47" style="edgeStyle=none;rounded=0;orthogonalLoop=1;jettySize=auto;html=1;exitX=0.5;exitY=1;exitDx=0;exitDy=0;entryX=0.5;entryY=0;entryDx=0;entryDy=0;endArrow=none;endFill=0;" parent="1" source="LmMj2YxexdQPXTSgJy5m-6" target="LmMj2YxexdQPXTSgJy5m-21" edge="1">
          <mxGeometry relative="1" as="geometry" />
        </mxCell>
        <mxCell id="LmMj2YxexdQPXTSgJy5m-48" style="edgeStyle=none;rounded=0;orthogonalLoop=1;jettySize=auto;html=1;exitX=0.5;exitY=1;exitDx=0;exitDy=0;endArrow=none;endFill=0;" parent="1" source="LmMj2YxexdQPXTSgJy5m-6" target="LmMj2YxexdQPXTSgJy5m-39" edge="1">
          <mxGeometry relative="1" as="geometry" />
        </mxCell>
        <mxCell id="LmMj2YxexdQPXTSgJy5m-50" style="edgeStyle=none;rounded=0;orthogonalLoop=1;jettySize=auto;html=1;exitX=0.5;exitY=1;exitDx=0;exitDy=0;endArrow=none;endFill=0;" parent="1" source="LmMj2YxexdQPXTSgJy5m-6" target="LmMj2YxexdQPXTSgJy5m-41" edge="1">
          <mxGeometry relative="1" as="geometry" />
        </mxCell>
        <mxCell id="LmMj2YxexdQPXTSgJy5m-51" style="edgeStyle=none;rounded=0;orthogonalLoop=1;jettySize=auto;html=1;exitX=0.5;exitY=1;exitDx=0;exitDy=0;endArrow=none;endFill=0;" parent="1" source="LmMj2YxexdQPXTSgJy5m-6" target="LmMj2YxexdQPXTSgJy5m-42" edge="1">
          <mxGeometry relative="1" as="geometry" />
        </mxCell>
        <mxCell id="LmMj2YxexdQPXTSgJy5m-52" style="edgeStyle=none;rounded=0;orthogonalLoop=1;jettySize=auto;html=1;exitX=0.5;exitY=1;exitDx=0;exitDy=0;endArrow=none;endFill=0;" parent="1" source="LmMj2YxexdQPXTSgJy5m-6" target="LmMj2YxexdQPXTSgJy5m-43" edge="1">
          <mxGeometry relative="1" as="geometry" />
        </mxCell>
        <mxCell id="yXfQ48dsX-8Y80jc49_D-10" style="edgeStyle=orthogonalEdgeStyle;rounded=0;orthogonalLoop=1;jettySize=auto;html=1;exitX=0;exitY=1;exitDx=0;exitDy=0;endArrow=none;endFill=0;startArrow=ERone;startFill=0;entryX=1;entryY=0.5;entryDx=0;entryDy=0;" edge="1" parent="1" source="LmMj2YxexdQPXTSgJy5m-6" target="yXfQ48dsX-8Y80jc49_D-9">
          <mxGeometry relative="1" as="geometry" />
        </mxCell>
        <mxCell id="yXfQ48dsX-8Y80jc49_D-19" style="edgeStyle=orthogonalEdgeStyle;rounded=0;orthogonalLoop=1;jettySize=auto;html=1;exitX=1;exitY=0.5;exitDx=0;exitDy=0;entryX=0;entryY=0.5;entryDx=0;entryDy=0;endArrow=none;endFill=0;startArrow=ERoneToMany;startFill=0;" edge="1" parent="1" source="LmMj2YxexdQPXTSgJy5m-6" target="yXfQ48dsX-8Y80jc49_D-18">
          <mxGeometry relative="1" as="geometry" />
        </mxCell>
        <mxCell id="LmMj2YxexdQPXTSgJy5m-6" value="trip" style="rounded=1;whiteSpace=wrap;html=1;" parent="1" vertex="1">
          <mxGeometry x="320" y="615" width="70" height="40" as="geometry" />
        </mxCell>
        <mxCell id="LmMj2YxexdQPXTSgJy5m-70" value="" style="edgeStyle=none;rounded=0;orthogonalLoop=1;jettySize=auto;html=1;endArrow=none;endFill=0;" parent="1" source="LmMj2YxexdQPXTSgJy5m-7" target="LmMj2YxexdQPXTSgJy5m-32" edge="1">
          <mxGeometry relative="1" as="geometry" />
        </mxCell>
        <mxCell id="LmMj2YxexdQPXTSgJy5m-72" style="edgeStyle=none;rounded=0;orthogonalLoop=1;jettySize=auto;html=1;endArrow=none;endFill=0;" parent="1" source="LmMj2YxexdQPXTSgJy5m-7" target="LmMj2YxexdQPXTSgJy5m-31" edge="1">
          <mxGeometry relative="1" as="geometry" />
        </mxCell>
        <mxCell id="LmMj2YxexdQPXTSgJy5m-7" value="profile" style="rounded=1;whiteSpace=wrap;html=1;" parent="1" vertex="1">
          <mxGeometry x="120" y="575" width="70" height="40" as="geometry" />
        </mxCell>
        <mxCell id="LmMj2YxexdQPXTSgJy5m-44" style="edgeStyle=none;rounded=0;orthogonalLoop=1;jettySize=auto;html=1;exitX=0.5;exitY=1;exitDx=0;exitDy=0;endArrow=none;endFill=0;" parent="1" source="LmMj2YxexdQPXTSgJy5m-8" target="LmMj2YxexdQPXTSgJy5m-9" edge="1">
          <mxGeometry relative="1" as="geometry" />
        </mxCell>
        <mxCell id="LmMj2YxexdQPXTSgJy5m-45" style="edgeStyle=none;rounded=0;orthogonalLoop=1;jettySize=auto;html=1;exitX=0.5;exitY=1;exitDx=0;exitDy=0;endArrow=none;endFill=0;" parent="1" source="LmMj2YxexdQPXTSgJy5m-8" target="LmMj2YxexdQPXTSgJy5m-33" edge="1">
          <mxGeometry relative="1" as="geometry" />
        </mxCell>
        <mxCell id="LmMj2YxexdQPXTSgJy5m-46" style="edgeStyle=none;rounded=0;orthogonalLoop=1;jettySize=auto;html=1;exitX=0.5;exitY=1;exitDx=0;exitDy=0;endArrow=none;endFill=0;" parent="1" source="LmMj2YxexdQPXTSgJy5m-8" target="LmMj2YxexdQPXTSgJy5m-34" edge="1">
          <mxGeometry relative="1" as="geometry" />
        </mxCell>
        <mxCell id="LmMj2YxexdQPXTSgJy5m-8" value="review" style="rounded=1;whiteSpace=wrap;html=1;" parent="1" vertex="1">
          <mxGeometry x="100" y="680" width="70" height="40" as="geometry" />
        </mxCell>
        <mxCell id="LmMj2YxexdQPXTSgJy5m-9" value="&lt;u&gt;id&lt;/u&gt;" style="ellipse;whiteSpace=wrap;html=1;" parent="1" vertex="1">
          <mxGeometry x="30" y="740" width="70" height="40" as="geometry" />
        </mxCell>
        <mxCell id="LmMj2YxexdQPXTSgJy5m-10" value="&lt;u&gt;id&lt;/u&gt;" style="ellipse;whiteSpace=wrap;html=1;" parent="1" vertex="1">
          <mxGeometry x="30" y="530" width="70" height="40" as="geometry" />
        </mxCell>
        <mxCell id="LmMj2YxexdQPXTSgJy5m-12" value="&lt;u&gt;id&lt;/u&gt;" style="ellipse;whiteSpace=wrap;html=1;" parent="1" vertex="1">
          <mxGeometry x="50" y="440" width="70" height="40" as="geometry" />
        </mxCell>
        <mxCell id="LmMj2YxexdQPXTSgJy5m-15" value="&lt;u&gt;id&lt;/u&gt;" style="ellipse;whiteSpace=wrap;html=1;" parent="1" vertex="1">
          <mxGeometry x="260" y="350" width="70" height="40" as="geometry" />
        </mxCell>
        <mxCell id="LmMj2YxexdQPXTSgJy5m-19" value="&lt;u&gt;id&lt;/u&gt;" style="ellipse;whiteSpace=wrap;html=1;" parent="1" vertex="1">
          <mxGeometry x="600" y="380" width="70" height="40" as="geometry" />
        </mxCell>
        <mxCell id="LmMj2YxexdQPXTSgJy5m-20" value="&lt;u&gt;id&lt;/u&gt;" style="ellipse;whiteSpace=wrap;html=1;" parent="1" vertex="1">
          <mxGeometry x="620" y="500" width="70" height="40" as="geometry" />
        </mxCell>
        <mxCell id="LmMj2YxexdQPXTSgJy5m-21" value="&lt;u&gt;id&lt;/u&gt;" style="ellipse;whiteSpace=wrap;html=1;" parent="1" vertex="1">
          <mxGeometry x="261.24" y="740" width="70" height="40" as="geometry" />
        </mxCell>
        <mxCell id="LmMj2YxexdQPXTSgJy5m-22" value="username" style="ellipse;whiteSpace=wrap;html=1;" parent="1" vertex="1">
          <mxGeometry x="30" y="400" width="70" height="40" as="geometry" />
        </mxCell>
        <mxCell id="LmMj2YxexdQPXTSgJy5m-23" value="email" style="ellipse;whiteSpace=wrap;html=1;" parent="1" vertex="1">
          <mxGeometry x="50" y="360" width="70" height="40" as="geometry" />
        </mxCell>
        <mxCell id="LmMj2YxexdQPXTSgJy5m-24" value="password" style="ellipse;whiteSpace=wrap;html=1;" parent="1" vertex="1">
          <mxGeometry x="110" y="340" width="70" height="40" as="geometry" />
        </mxCell>
        <mxCell id="LmMj2YxexdQPXTSgJy5m-26" value="name" style="ellipse;whiteSpace=wrap;html=1;" parent="1" vertex="1">
          <mxGeometry x="300" y="320" width="70" height="40" as="geometry" />
        </mxCell>
        <mxCell id="LmMj2YxexdQPXTSgJy5m-27" value="phone" style="ellipse;whiteSpace=wrap;html=1;" parent="1" vertex="1">
          <mxGeometry x="361.24" y="300" width="70" height="40" as="geometry" />
        </mxCell>
        <mxCell id="LmMj2YxexdQPXTSgJy5m-28" value="nid" style="ellipse;whiteSpace=wrap;html=1;" parent="1" vertex="1">
          <mxGeometry x="414" y="310" width="70" height="40" as="geometry" />
        </mxCell>
        <mxCell id="LmMj2YxexdQPXTSgJy5m-29" value="license" style="ellipse;whiteSpace=wrap;html=1;" parent="1" vertex="1">
          <mxGeometry x="450" y="340" width="70" height="40" as="geometry" />
        </mxCell>
        <mxCell id="LmMj2YxexdQPXTSgJy5m-30" value="name" style="ellipse;whiteSpace=wrap;html=1;" parent="1" vertex="1">
          <mxGeometry x="600" y="430" width="70" height="40" as="geometry" />
        </mxCell>
        <mxCell id="LmMj2YxexdQPXTSgJy5m-31" value="phone" style="ellipse;whiteSpace=wrap;html=1;" parent="1" vertex="1">
          <mxGeometry x="10" y="575" width="70" height="40" as="geometry" />
        </mxCell>
        <mxCell id="LmMj2YxexdQPXTSgJy5m-32" value="name" style="ellipse;whiteSpace=wrap;html=1;" parent="1" vertex="1">
          <mxGeometry x="20" y="615" width="70" height="40" as="geometry" />
        </mxCell>
        <mxCell id="LmMj2YxexdQPXTSgJy5m-33" value="comment" style="ellipse;whiteSpace=wrap;html=1;" parent="1" vertex="1">
          <mxGeometry x="85.62" y="770" width="70" height="40" as="geometry" />
        </mxCell>
        <mxCell id="LmMj2YxexdQPXTSgJy5m-34" value="rating" style="ellipse;whiteSpace=wrap;html=1;" parent="1" vertex="1">
          <mxGeometry x="155.62" y="750" width="70" height="40" as="geometry" />
        </mxCell>
        <mxCell id="LmMj2YxexdQPXTSgJy5m-35" value="brand" style="ellipse;whiteSpace=wrap;html=1;" parent="1" vertex="1">
          <mxGeometry x="640" y="540" width="70" height="40" as="geometry" />
        </mxCell>
        <mxCell id="LmMj2YxexdQPXTSgJy5m-36" value="model" style="ellipse;whiteSpace=wrap;html=1;" parent="1" vertex="1">
          <mxGeometry x="640" y="580" width="70" height="40" as="geometry" />
        </mxCell>
        <mxCell id="LmMj2YxexdQPXTSgJy5m-37" value="seats" style="ellipse;whiteSpace=wrap;html=1;" parent="1" vertex="1">
          <mxGeometry x="640" y="620" width="70" height="40" as="geometry" />
        </mxCell>
        <mxCell id="LmMj2YxexdQPXTSgJy5m-38" value="registration" style="ellipse;whiteSpace=wrap;html=1;" parent="1" vertex="1">
          <mxGeometry x="630" y="660" width="70" height="40" as="geometry" />
        </mxCell>
        <mxCell id="LmMj2YxexdQPXTSgJy5m-39" value="startDate" style="ellipse;whiteSpace=wrap;html=1;" parent="1" vertex="1">
          <mxGeometry x="311.24" y="750" width="70" height="40" as="geometry" />
        </mxCell>
        <mxCell id="LmMj2YxexdQPXTSgJy5m-40" value="startTime" style="ellipse;whiteSpace=wrap;html=1;" parent="1" vertex="1">
          <mxGeometry x="371.24" y="740" width="70" height="40" as="geometry" />
        </mxCell>
        <mxCell id="LmMj2YxexdQPXTSgJy5m-41" value="distance" style="ellipse;whiteSpace=wrap;html=1;" parent="1" vertex="1">
          <mxGeometry x="422.48" y="730" width="70" height="40" as="geometry" />
        </mxCell>
        <mxCell id="LmMj2YxexdQPXTSgJy5m-42" value="duration" style="ellipse;whiteSpace=wrap;html=1;" parent="1" vertex="1">
          <mxGeometry x="451.24" y="700" width="70" height="40" as="geometry" />
        </mxCell>
        <mxCell id="LmMj2YxexdQPXTSgJy5m-43" value="status" style="ellipse;whiteSpace=wrap;html=1;" parent="1" vertex="1">
          <mxGeometry x="461.24" y="660" width="70" height="40" as="geometry" />
        </mxCell>
        <mxCell id="LmMj2YxexdQPXTSgJy5m-49" style="edgeStyle=none;rounded=0;orthogonalLoop=1;jettySize=auto;html=1;exitX=0.5;exitY=1;exitDx=0;exitDy=0;entryX=0.282;entryY=0.1;entryDx=0;entryDy=0;entryPerimeter=0;endArrow=none;endFill=0;" parent="1" source="LmMj2YxexdQPXTSgJy5m-6" target="LmMj2YxexdQPXTSgJy5m-40" edge="1">
          <mxGeometry relative="1" as="geometry" />
        </mxCell>
        <mxCell id="LmMj2YxexdQPXTSgJy5m-59" style="edgeStyle=none;rounded=0;orthogonalLoop=1;jettySize=auto;html=1;exitX=1;exitY=0.5;exitDx=0;exitDy=0;entryX=0.057;entryY=0.725;entryDx=0;entryDy=0;entryPerimeter=0;endArrow=none;endFill=0;" parent="1" source="LmMj2YxexdQPXTSgJy5m-4" target="LmMj2YxexdQPXTSgJy5m-19" edge="1">
          <mxGeometry relative="1" as="geometry" />
        </mxCell>
        <mxCell id="LmMj2YxexdQPXTSgJy5m-61" style="edgeStyle=none;rounded=0;orthogonalLoop=1;jettySize=auto;html=1;exitX=0.5;exitY=0;exitDx=0;exitDy=0;entryX=0.743;entryY=0.9;entryDx=0;entryDy=0;entryPerimeter=0;endArrow=none;endFill=0;" parent="1" source="LmMj2YxexdQPXTSgJy5m-3" target="LmMj2YxexdQPXTSgJy5m-15" edge="1">
          <mxGeometry relative="1" as="geometry" />
        </mxCell>
        <mxCell id="LmMj2YxexdQPXTSgJy5m-64" style="edgeStyle=none;rounded=0;orthogonalLoop=1;jettySize=auto;html=1;exitX=0.5;exitY=0;exitDx=0;exitDy=0;entryX=0.286;entryY=0.925;entryDx=0;entryDy=0;entryPerimeter=0;endArrow=none;endFill=0;" parent="1" source="LmMj2YxexdQPXTSgJy5m-3" target="LmMj2YxexdQPXTSgJy5m-28" edge="1">
          <mxGeometry relative="1" as="geometry" />
        </mxCell>
        <mxCell id="LmMj2YxexdQPXTSgJy5m-67" style="edgeStyle=none;rounded=0;orthogonalLoop=1;jettySize=auto;html=1;exitX=0;exitY=0.5;exitDx=0;exitDy=0;entryX=0.929;entryY=0.7;entryDx=0;entryDy=0;entryPerimeter=0;endArrow=none;endFill=0;" parent="1" source="LmMj2YxexdQPXTSgJy5m-2" target="LmMj2YxexdQPXTSgJy5m-23" edge="1">
          <mxGeometry relative="1" as="geometry" />
        </mxCell>
        <mxCell id="LmMj2YxexdQPXTSgJy5m-73" style="edgeStyle=none;rounded=0;orthogonalLoop=1;jettySize=auto;html=1;exitX=0;exitY=0.5;exitDx=0;exitDy=0;entryX=0.943;entryY=0.675;entryDx=0;entryDy=0;entryPerimeter=0;endArrow=none;endFill=0;" parent="1" source="LmMj2YxexdQPXTSgJy5m-7" target="LmMj2YxexdQPXTSgJy5m-10" edge="1">
          <mxGeometry relative="1" as="geometry" />
        </mxCell>
        <mxCell id="yXfQ48dsX-8Y80jc49_D-5" style="edgeStyle=orthogonalEdgeStyle;rounded=0;orthogonalLoop=1;jettySize=auto;html=1;exitX=0.5;exitY=1;exitDx=0;exitDy=0;entryX=0.5;entryY=0;entryDx=0;entryDy=0;endArrow=ERone;endFill=0;" edge="1" parent="1" source="yXfQ48dsX-8Y80jc49_D-1" target="LmMj2YxexdQPXTSgJy5m-7">
          <mxGeometry relative="1" as="geometry" />
        </mxCell>
        <mxCell id="yXfQ48dsX-8Y80jc49_D-1" value="has" style="rhombus;whiteSpace=wrap;html=1;" vertex="1" parent="1">
          <mxGeometry x="130" y="500" width="80" height="40" as="geometry" />
        </mxCell>
        <mxCell id="yXfQ48dsX-8Y80jc49_D-8" style="edgeStyle=orthogonalEdgeStyle;rounded=0;orthogonalLoop=1;jettySize=auto;html=1;exitX=0.5;exitY=1;exitDx=0;exitDy=0;entryX=0;entryY=0.5;entryDx=0;entryDy=0;endArrow=ERoneToMany;endFill=0;" edge="1" parent="1" source="yXfQ48dsX-8Y80jc49_D-6" target="LmMj2YxexdQPXTSgJy5m-6">
          <mxGeometry relative="1" as="geometry" />
        </mxCell>
        <mxCell id="yXfQ48dsX-8Y80jc49_D-6" value="booked" style="rhombus;whiteSpace=wrap;html=1;" vertex="1" parent="1">
          <mxGeometry x="225.62" y="510" width="80" height="40" as="geometry" />
        </mxCell>
        <mxCell id="yXfQ48dsX-8Y80jc49_D-11" style="edgeStyle=orthogonalEdgeStyle;rounded=0;orthogonalLoop=1;jettySize=auto;html=1;exitX=0;exitY=0.5;exitDx=0;exitDy=0;endArrow=ERoneToMany;endFill=0;" edge="1" parent="1" source="yXfQ48dsX-8Y80jc49_D-9" target="LmMj2YxexdQPXTSgJy5m-8">
          <mxGeometry relative="1" as="geometry">
            <Array as="points">
              <mxPoint x="135" y="660" />
            </Array>
          </mxGeometry>
        </mxCell>
        <mxCell id="yXfQ48dsX-8Y80jc49_D-9" value="has" style="rhombus;whiteSpace=wrap;html=1;" vertex="1" parent="1">
          <mxGeometry x="190" y="640" width="80" height="40" as="geometry" />
        </mxCell>
        <mxCell id="yXfQ48dsX-8Y80jc49_D-13" style="edgeStyle=orthogonalEdgeStyle;rounded=0;orthogonalLoop=1;jettySize=auto;html=1;exitX=0.5;exitY=0;exitDx=0;exitDy=0;entryX=0.5;entryY=1;entryDx=0;entryDy=0;endArrow=ERone;endFill=0;" edge="1" parent="1" source="yXfQ48dsX-8Y80jc49_D-12" target="LmMj2YxexdQPXTSgJy5m-4">
          <mxGeometry relative="1" as="geometry" />
        </mxCell>
        <mxCell id="yXfQ48dsX-8Y80jc49_D-14" style="edgeStyle=orthogonalEdgeStyle;rounded=0;orthogonalLoop=1;jettySize=auto;html=1;exitX=0.5;exitY=1;exitDx=0;exitDy=0;endArrow=ERoneToMany;endFill=0;" edge="1" parent="1" source="yXfQ48dsX-8Y80jc49_D-12" target="LmMj2YxexdQPXTSgJy5m-5">
          <mxGeometry relative="1" as="geometry" />
        </mxCell>
        <mxCell id="yXfQ48dsX-8Y80jc49_D-12" value="is" style="rhombus;whiteSpace=wrap;html=1;" vertex="1" parent="1">
          <mxGeometry x="495" y="490" width="80" height="40" as="geometry" />
        </mxCell>
        <mxCell id="yXfQ48dsX-8Y80jc49_D-17" style="edgeStyle=orthogonalEdgeStyle;rounded=0;orthogonalLoop=1;jettySize=auto;html=1;exitX=0.5;exitY=1;exitDx=0;exitDy=0;entryX=0;entryY=0.25;entryDx=0;entryDy=0;endArrow=ERone;endFill=0;" edge="1" parent="1" source="yXfQ48dsX-8Y80jc49_D-15" target="LmMj2YxexdQPXTSgJy5m-5">
          <mxGeometry relative="1" as="geometry" />
        </mxCell>
        <mxCell id="yXfQ48dsX-8Y80jc49_D-15" value="drives" style="rhombus;whiteSpace=wrap;html=1;" vertex="1" parent="1">
          <mxGeometry x="374" y="510" width="80" height="40" as="geometry" />
        </mxCell>
        <mxCell id="yXfQ48dsX-8Y80jc49_D-20" style="edgeStyle=orthogonalEdgeStyle;rounded=0;orthogonalLoop=1;jettySize=auto;html=1;exitX=1;exitY=0.5;exitDx=0;exitDy=0;entryX=0.5;entryY=1;entryDx=0;entryDy=0;endArrow=ERone;endFill=0;" edge="1" parent="1" source="yXfQ48dsX-8Y80jc49_D-18" target="LmMj2YxexdQPXTSgJy5m-5">
          <mxGeometry relative="1" as="geometry" />
        </mxCell>
        <mxCell id="yXfQ48dsX-8Y80jc49_D-18" value="using" style="rhombus;whiteSpace=wrap;html=1;" vertex="1" parent="1">
          <mxGeometry x="409" y="600" width="80" height="40" as="geometry" />
        </mxCell>
      </root>
    </mxGraphModel>
  </diagram>
</mxfile>
